<svg xmlns="http://www.w3.org/2000/svg" xmlns:xlink="http://www.w3.org/1999/xlink" viewBox="0,0,256,256" width="32px" height="32px"><g fill="#146ebe" fill-rule="nonzero" stroke="none" stroke-width="1" stroke-linecap="butt" stroke-linejoin="miter" stroke-miterlimit="10" stroke-dasharray="" stroke-dashoffset="0" font-family="none" font-weight="none" font-size="none" text-anchor="none" style="mix-blend-mode: normal"><g transform="scale(8,8)"><path d="M9,4c-1.654,0 -3,1.346 -3,3c0,1.30161 0.83875,2.40214 2,2.81641v1.48828v11.90234v3.81641c0,0.54 0.43656,0.97656 0.97656,0.97656h0.04688c0.54,0 0.97656,-0.43656 0.97656,-0.97656v-4.79492c0.33471,-0.38876 1.13842,-1.18164 3.44531,-1.18164c1.224,0 2.22511,0.42691 3.28711,0.87891c1.037,0.442 2.10947,0.89844 3.35547,0.89844c2.359,0 3.96148,-1.23953 4.64648,-1.76953l0.15234,-0.11523c0.551,-0.399 1.11328,-0.94345 1.11328,-1.93945v-8.32422c0,-0.908 -0.77817,-1.67578 -1.70117,-1.67578c-0.495,0 -0.85842,0.28659 -1.35742,0.68359c-0.662,0.524 -1.66052,1.31641 -2.85352,1.31641c-0.815,0 -1.6102,-0.38027 -2.5332,-0.82227c-1.151,-0.552 -2.45633,-1.17773 -4.11133,-1.17773c-1.1351,0 -2.02167,0.18834 -2.73047,0.45703c0.77618,-0.54285 1.28711,-1.44025 1.28711,-2.45703c0,-1.654 -1.346,-3 -3,-3zM9,6c0.552,0 1,0.449 1,1c0,0.551 -0.448,1 -1,1c-0.552,0 -1,-0.449 -1,-1c0,-0.551 0.448,-1 1,-1zM13.44336,11c1.202,0 2.19505,0.47647 3.24805,0.98047c1.045,0.502 2.12648,1.01953 3.39648,1.01953c1.755,0 3.07016,-0.94552 3.91016,-1.60352v7.66992c-0.001,0.004 -0.04506,0.07886 -0.28906,0.25586l-0.19922,0.15234c-0.567,0.438 -1.74687,1.34961 -3.42187,1.34961c-0.838,0 -1.64127,-0.34128 -2.57227,-0.73828c-1.143,-0.488 -2.43927,-1.04102 -4.07227,-1.04102c-1.552,0 -2.65736,0.31308 -3.44336,0.70508v-7.38867c0.345,-0.456 1.13236,-1.36133 3.44336,-1.36133z"></path></g></g></svg>